# xmcd CD database file
#
# Track frame offsets:
#	150
#	16293
#	35681
#	49511
#	66625
#	79835
#	94303
#	115353
#	141433
#	157528
#	180608
#	190370
#	210637
#	229500
#	250450
#	271952
#	280150
#	293015
#	308073
#	318940
#	333457
#
# Disc length: 4707 seconds
#
# Revision: 0
# Processed by: cddbd v1.5.1PL0 Copyright (c) Steve Scherf et al.
# Submitted via: CDex 1.51
#
DISCID=32126115
DTITLE=Diversos - Zildo Selecao CD 06
DYEAR=2005
DGENRE=MPB
TTITLE0=Pra voce - Sivio Cezar
TTITLE1=Corcovado-Joao Gilberto
TTITLE2=Nunca mais-Danilo Caymme
TTITLE3=Parceiro das delicias-Elba Ramalho
TTITLE4=Bom dia tristeza-Roberto Ribeiro
TTITLE5=Arranha ceu-Ze Renato
TTITLE6=De volta pro aconchego-Elba Ramalho
TTITLE7=Maninha-Caetano e Bethania
TTITLE8=Aguas de marco-Elis e Tom Jobim
TTITLE9=Pra machucar o coracao-Joao Gilberto
TTITLE10=Bernardine-Pat Boone
TTITLE11=A ponte-Lenine
TTITLE12=A primeira vista-Chico Cezar
TTITLE13=Acai-Djavan
TTITLE14=Todo cambia-Mercedes Sosa
TTITLE15=Sufoco-Alcione
TTITLE16=Porque voce faz cinema-Adriana Calcanhoto
TTITLE17=Dedicado a voce-Claudio Almeida/Jeovah da Gaita
TTITLE18=Asas da America-Geraldo Azevedo
TTITLE19=Pau de arara-Gilberto Gil
TTITLE20=Na base da chinela-Elba Ramalho
EXTD=YEAR: 2005
EXTT0=
EXTT1=
EXTT2=
EXTT3=
EXTT4=
EXTT5=
EXTT6=
EXTT7=
EXTT8=
EXTT9=
EXTT10=
EXTT11=
EXTT12=
EXTT13=
EXTT14=
EXTT15=
EXTT16=
EXTT17=
EXTT18=
EXTT19=
EXTT20=
PLAYORDER=
